<svg xmlns="http://www.w3.org/2000/svg" viewBox="0 0 900 300" font-family="-apple-system, Arial, sans-serif">
  <text x="450" y="18" text-anchor="middle" font-size="13" fill="#5b6772">87,8 m</text>
  <line x1="10" y1="26" x2="890" y2="26" stroke="#c9c2ae" stroke-width="1"/>
  <text x="895" y="165" font-size="13" fill="#5b6772" transform="rotate(90 895 165)" text-anchor="middle">23,5 m</text>

  <g transform="translate(10,36)">
    <rect x="0" y="0" width="880" height="235" fill="none" stroke="#2C3E50" stroke-width="2"/>

    <!-- corridor system (drawn first, as open floor) -->
    <rect x="212" y="100" width="600" height="35" fill="#ffffff" stroke="#c9c2ae" stroke-dasharray="4 3"/>
    <rect x="452" y="0" width="100" height="235" fill="#ffffff" stroke="#c9c2ae" stroke-dasharray="4 3"/>
    <text x="230" y="122" font-size="12" fill="#8a948d">&#8596;</text>
    <text x="790" y="122" font-size="12" fill="#8a948d">&#8596;</text>
    <text x="502" y="22" text-anchor="middle" font-size="9.5" fill="#8a6d00">EXIT</text>
    <text x="502" y="112" text-anchor="middle" font-size="10.5" fill="#5b6772">Pasillo principal</text>
    <text x="502" y="213" text-anchor="middle" font-size="14" fill="#2C3E50">&#8593; &#8593; &#8593; &#8593;</text>
    <text x="502" y="227" text-anchor="middle" font-size="9" fill="#5b6772">Entrada</text>

    <!-- Unit 1: La Despensa -->
    <rect x="0" y="0" width="212" height="235" fill="#2C3E50"/>
    <rect x="18" y="150" width="18" height="18" fill="#F5A623"/>
    <rect x="40" y="150" width="18" height="18" fill="#9fc3e0"/>
    <text x="18" y="60" font-size="15" font-weight="700" fill="#ffffff">1</text>
    <text x="18" y="82" font-size="13" fill="#ffffff">Supermercado</text>
    <text x="18" y="100" font-size="15" font-weight="700" fill="#F5A623">La Despensa</text>

    <!-- WC + Miranda column -->
    <rect x="212" y="0" width="66" height="100" fill="#eef2f0" stroke="#c9c2ae"/>
    <text x="245" y="42" text-anchor="middle" font-size="11" fill="#2C3E50">WC</text>
    <text x="245" y="58" text-anchor="middle" font-size="10" fill="#5b6772">Aseos</text>
    <rect x="212" y="135" width="66" height="100" fill="#fdf0da" stroke="#c9c2ae"/>
    <text x="245" y="178" text-anchor="middle" font-size="11" font-weight="700" fill="#2C3E50">2</text>
    <text x="245" y="194" text-anchor="middle" font-size="10" fill="#46596c">Cafetería</text>
    <text x="245" y="207" text-anchor="middle" font-size="10" fill="#46596c">Miranda</text>

    <!-- 22 / 21 / 20-19 top row -->
    <rect x="278" y="0" width="58" height="100" fill="#eef2f0" stroke="#c9c2ae"/>
    <text x="307" y="42" text-anchor="middle" font-size="11" font-weight="700" fill="#2C3E50">22</text>
    <text x="307" y="58" text-anchor="middle" font-size="9.5" fill="#5b6772">Centro de</text>
    <text x="307" y="70" text-anchor="middle" font-size="9.5" fill="#5b6772">Bienestar</text>

    <rect x="336" y="0" width="58" height="100" fill="#fdf0da" stroke="#c9c2ae"/>
    <text x="365" y="42" text-anchor="middle" font-size="11" font-weight="700" fill="#2C3E50">21</text>
    <text x="365" y="58" text-anchor="middle" font-size="9.5" fill="#46596c">Peluquería</text>
    <text x="365" y="70" text-anchor="middle" font-size="9.5" fill="#46596c">Sta. Amapola</text>

    <rect x="394" y="0" width="58" height="100" fill="#eef2f0" stroke="#c9c2ae"/>
    <text x="423" y="35" text-anchor="middle" font-size="10.5" font-weight="700" fill="#2C3E50">19</text>
    <text x="423" y="49" text-anchor="middle" font-size="9" fill="#5b6772">GEA Beauty</text>
    <text x="423" y="72" text-anchor="middle" font-size="10.5" font-weight="700" fill="#2C3E50">20</text>
    <text x="423" y="86" text-anchor="middle" font-size="9" fill="#5b6772">Vino La Finca</text>

    <!-- Santander + Panod bottom row -->
    <rect x="278" y="135" width="122" height="100" fill="#fdf0da" stroke="#c9c2ae"/>
    <text x="339" y="178" text-anchor="middle" font-size="11" font-weight="700" fill="#2C3E50">3.4.6</text>
    <text x="339" y="195" text-anchor="middle" font-size="10.5" fill="#46596c">Banco Santander</text>

    <rect x="400" y="155" width="52" height="80" fill="#eef2f0" stroke="#c9c2ae"/>
    <text x="426" y="188" text-anchor="middle" font-size="10.5" font-weight="700" fill="#2C3E50">5</text>
    <text x="426" y="203" text-anchor="middle" font-size="9.5" fill="#5b6772">Panod.</text>

    <!-- Veterinaria + Dental -->
    <rect x="552" y="0" width="80" height="100" fill="#eef2f0" stroke="#c9c2ae"/>
    <text x="592" y="38" text-anchor="middle" font-size="10.5" font-weight="700" fill="#2C3E50">17.18</text>
    <text x="592" y="54" text-anchor="middle" font-size="9.5" fill="#5b6772">Clínica</text>
    <text x="592" y="67" text-anchor="middle" font-size="9.5" fill="#5b6772">Veterinaria</text>

    <rect x="552" y="135" width="80" height="100" fill="#fdf0da" stroke="#c9c2ae"/>
    <text x="592" y="178" text-anchor="middle" font-size="10.5" font-weight="700" fill="#2C3E50">7.8</text>
    <text x="592" y="194" text-anchor="middle" font-size="9.5" fill="#46596c">Clínica Dental</text>
    <text x="592" y="207" text-anchor="middle" font-size="9.5" fill="#46596c">Somosaguas</text>

    <!-- Autoescuela + Gourmeton -->
    <rect x="632" y="0" width="80" height="100" fill="#eef2f0" stroke="#c9c2ae"/>
    <text x="672" y="42" text-anchor="middle" font-size="10" font-weight="700" fill="#2C3E50">16</text>
    <text x="672" y="58" text-anchor="middle" font-size="9" fill="#5b6772">Autoescuela</text>
    <text x="672" y="70" text-anchor="middle" font-size="9" fill="#5b6772">Salinas</text>

    <rect x="632" y="135" width="80" height="100" fill="#fdf0da" stroke="#c9c2ae"/>
    <text x="672" y="178" text-anchor="middle" font-size="10.5" font-weight="700" fill="#2C3E50">9</text>
    <text x="672" y="194" text-anchor="middle" font-size="10" fill="#46596c">Gourmetón</text>

    <!-- Right cluster -->
    <rect x="712" y="0" width="68" height="100" fill="#eef2f0" stroke="#c9c2ae"/>
    <text x="746" y="40" text-anchor="middle" font-size="10.5" font-weight="700" fill="#2C3E50">15</text>
    <text x="746" y="55" text-anchor="middle" font-size="9.5" fill="#5b6772">Farmacia Prado</text>
    <text x="746" y="68" text-anchor="middle" font-size="9.5" fill="#5b6772">de Somosaguas</text>

    <rect x="780" y="0" width="32" height="45" fill="#fdf0da" stroke="#c9c2ae"/>
    <text x="796" y="18" text-anchor="middle" font-size="8.5" font-weight="700" fill="#2C3E50">15-A</text>
    <text x="796" y="30" text-anchor="middle" font-size="7.5" fill="#46596c">El Fogón</text>

    <rect x="712" y="135" width="45" height="100" fill="#fdf0da" stroke="#c9c2ae"/>
    <text x="734" y="178" text-anchor="middle" font-size="10" font-weight="700" fill="#2C3E50">10.11</text>
    <text x="734" y="192" text-anchor="middle" font-size="9" fill="#46596c">Baralia</text>

    <rect x="757" y="135" width="55" height="48" fill="#eef2f0" stroke="#c9c2ae"/>
    <text x="784" y="157" text-anchor="middle" font-size="9" font-weight="700" fill="#2C3E50">14</text>
    <text x="784" y="169" text-anchor="middle" font-size="7.5" fill="#5b6772">Loterías</text>

    <rect x="757" y="183" width="55" height="52" fill="#fdf0da" stroke="#c9c2ae"/>
    <text x="784" y="205" text-anchor="middle" font-size="9" font-weight="700" fill="#2C3E50">12.13</text>
    <text x="784" y="217" text-anchor="middle" font-size="8" fill="#46596c">Inmobaralia</text>

    <rect x="812" y="0" width="68" height="235" fill="#eef2f0" stroke="#c9c2ae"/>
    <text x="846" y="120" text-anchor="middle" font-size="9.5" fill="#5b6772">acceso</text>
    <text x="846" y="133" text-anchor="middle" font-size="9.5" fill="#5b6772">exterior</text>
  </g>

  <text x="450" y="292" text-anchor="middle" font-size="11" fill="#8a948d">Esquema orientativo de distribución (no a escala arquitectónica exacta) · dimensiones totales 87,8 × 23,5 m</text>
</svg>
