<svg xmlns="http://www.w3.org/2000/svg" viewBox="0 0 900 300" font-family="-apple-system, Arial, sans-serif">
  <text x="450" y="18" text-anchor="middle" font-size="13" fill="#5b6772">87,8 m</text>
  <line x1="10" y1="26" x2="890" y2="26" stroke="#c9c2ae" stroke-width="1"/>
  <text x="895" y="165" font-size="13" fill="#5b6772" transform="rotate(90 895 165)" text-anchor="middle">23,5 m</text>

  <g transform="translate(10,36)">
    <rect x="0" y="0" width="880" height="235" fill="none" stroke="#2C3E50" stroke-width="2"/>

    <!-- Unit 1: La Despensa -->
    <rect x="0" y="0" width="212" height="235" fill="#2C3E50"/>
    <rect x="18" y="150" width="18" height="18" fill="#F5A623"/>
    <rect x="40" y="150" width="18" height="18" fill="#9fc3e0"/>
    <text x="18" y="60" font-size="15" font-weight="700" fill="#ffffff">1</text>
    <text x="18" y="82" font-size="13" fill="#ffffff">Supermercado</text>
    <text x="18" y="100" font-size="15" font-weight="700" fill="#F5A623">La Despensa</text>

    <!-- WC + Miranda column -->
    <rect x="212" y="0" width="66" height="110" fill="#eef2f0" stroke="#c9c2ae"/>
    <text x="245" y="45" text-anchor="middle" font-size="11" fill="#2C3E50">WC</text>
    <text x="245" y="62" text-anchor="middle" font-size="10" fill="#5b6772">Aseos</text>
    <rect x="212" y="110" width="66" height="125" fill="#fdf0da" stroke="#c9c2ae"/>
    <text x="245" y="165" text-anchor="middle" font-size="11" font-weight="700" fill="#2C3E50">2</text>
    <text x="245" y="182" text-anchor="middle" font-size="10" fill="#46596c">Cafetería</text>
    <text x="245" y="196" text-anchor="middle" font-size="10" fill="#46596c">Miranda</text>

    <!-- 22 / 21 / 20-19 top row -->
    <rect x="278" y="0" width="58" height="110" fill="#eef2f0" stroke="#c9c2ae"/>
    <text x="307" y="45" text-anchor="middle" font-size="11" font-weight="700" fill="#2C3E50">22</text>
    <text x="307" y="62" text-anchor="middle" font-size="9.5" fill="#5b6772">Centro de</text>
    <text x="307" y="74" text-anchor="middle" font-size="9.5" fill="#5b6772">Bienestar</text>

    <rect x="336" y="0" width="58" height="110" fill="#fdf0da" stroke="#c9c2ae"/>
    <text x="365" y="45" text-anchor="middle" font-size="11" font-weight="700" fill="#2C3E50">21</text>
    <text x="365" y="62" text-anchor="middle" font-size="9.5" fill="#46596c">Peluquería</text>
    <text x="365" y="74" text-anchor="middle" font-size="9.5" fill="#46596c">Sta. Amapola</text>

    <rect x="394" y="0" width="58" height="110" fill="#eef2f0" stroke="#c9c2ae"/>
    <text x="423" y="40" text-anchor="middle" font-size="10.5" font-weight="700" fill="#2C3E50">19</text>
    <text x="423" y="55" text-anchor="middle" font-size="9" fill="#5b6772">GEA Beauty</text>
    <text x="423" y="80" text-anchor="middle" font-size="10.5" font-weight="700" fill="#2C3E50">20</text>
    <text x="423" y="95" text-anchor="middle" font-size="9" fill="#5b6772">Vino La Finca</text>

    <!-- Santander + Panod bottom row -->
    <rect x="278" y="110" width="122" height="125" fill="#fdf0da" stroke="#c9c2ae"/>
    <text x="339" y="168" text-anchor="middle" font-size="11" font-weight="700" fill="#2C3E50">3.4.6</text>
    <text x="339" y="185" text-anchor="middle" font-size="10.5" fill="#46596c">Banco Santander</text>

    <rect x="400" y="150" width="52" height="85" fill="#eef2f0" stroke="#c9c2ae"/>
    <text x="426" y="188" text-anchor="middle" font-size="10.5" font-weight="700" fill="#2C3E50">5</text>
    <text x="426" y="203" text-anchor="middle" font-size="9.5" fill="#5b6772">Panod.</text>

    <!-- aisle / entrance -->
    <rect x="452" y="0" width="100" height="235" fill="#ffffff" stroke="#c9c2ae" stroke-dasharray="4 3"/>
    <text x="502" y="30" text-anchor="middle" font-size="9.5" fill="#8a6d00">EXIT</text>
    <text x="502" y="110" text-anchor="middle" font-size="10.5" fill="#5b6772">Pasillo</text>
    <text x="502" y="124" text-anchor="middle" font-size="10.5" fill="#5b6772">principal</text>
    <text x="502" y="215" text-anchor="middle" font-size="14" fill="#2C3E50">&#8593; &#8593; &#8593; &#8593;</text>
    <text x="502" y="228" text-anchor="middle" font-size="9" fill="#5b6772">Entrada</text>

    <!-- Veterinaria + Dental -->
    <rect x="552" y="0" width="80" height="110" fill="#eef2f0" stroke="#c9c2ae"/>
    <text x="592" y="40" text-anchor="middle" font-size="10.5" font-weight="700" fill="#2C3E50">17.18</text>
    <text x="592" y="56" text-anchor="middle" font-size="9.5" fill="#5b6772">Clínica</text>
    <text x="592" y="69" text-anchor="middle" font-size="9.5" fill="#5b6772">Veterinaria</text>

    <rect x="552" y="110" width="80" height="125" fill="#fdf0da" stroke="#c9c2ae"/>
    <text x="592" y="163" text-anchor="middle" font-size="10.5" font-weight="700" fill="#2C3E50">7.8</text>
    <text x="592" y="179" text-anchor="middle" font-size="9.5" fill="#46596c">Clínica Dental</text>
    <text x="592" y="192" text-anchor="middle" font-size="9.5" fill="#46596c">Somosaguas</text>

    <!-- Autoescuela + Gourmeton -->
    <rect x="632" y="0" width="80" height="70" fill="#eef2f0" stroke="#c9c2ae"/>
    <text x="672" y="30" text-anchor="middle" font-size="10" font-weight="700" fill="#2C3E50">16</text>
    <text x="672" y="45" text-anchor="middle" font-size="9" fill="#5b6772">Autoescuela</text>
    <text x="672" y="57" text-anchor="middle" font-size="9" fill="#5b6772">Salinas</text>

    <rect x="632" y="70" width="80" height="165" fill="#fdf0da" stroke="#c9c2ae"/>
    <text x="672" y="150" text-anchor="middle" font-size="11" font-weight="700" fill="#2C3E50" transform="rotate(-90 672 150)">9 · Gourmetón</text>

    <!-- Right cluster -->
    <rect x="712" y="0" width="100" height="110" fill="#eef2f0" stroke="#c9c2ae"/>
    <text x="750" y="35" text-anchor="middle" font-size="10.5" font-weight="700" fill="#2C3E50">15</text>
    <text x="750" y="50" text-anchor="middle" font-size="9.5" fill="#5b6772">Farmacia Prado</text>
    <text x="750" y="63" text-anchor="middle" font-size="9.5" fill="#5b6772">de Somosaguas</text>
    <text x="792" y="20" text-anchor="middle" font-size="9" font-weight="700" fill="#2C3E50">15-A</text>
    <text x="792" y="32" text-anchor="middle" font-size="8" fill="#5b6772">El Fogón</text>

    <rect x="712" y="110" width="55" height="125" fill="#fdf0da" stroke="#c9c2ae"/>
    <text x="739" y="165" text-anchor="middle" font-size="10" font-weight="700" fill="#2C3E50">10.11</text>
    <text x="739" y="180" text-anchor="middle" font-size="9" fill="#46596c">Baralia</text>

    <rect x="767" y="110" width="45" height="60" fill="#eef2f0" stroke="#c9c2ae"/>
    <text x="789" y="135" text-anchor="middle" font-size="9" font-weight="700" fill="#2C3E50">14</text>
    <text x="789" y="147" text-anchor="middle" font-size="7.5" fill="#5b6772">Loterías</text>

    <rect x="767" y="170" width="45" height="65" fill="#fdf0da" stroke="#c9c2ae"/>
    <text x="789" y="198" text-anchor="middle" font-size="9" font-weight="700" fill="#2C3E50">12.13</text>
    <text x="789" y="210" text-anchor="middle" font-size="8" fill="#46596c">Inmobaralia</text>

    <rect x="812" y="0" width="68" height="235" fill="#eef2f0" stroke="#c9c2ae"/>
    <text x="846" y="120" text-anchor="middle" font-size="9.5" fill="#5b6772">acceso</text>
    <text x="846" y="133" text-anchor="middle" font-size="9.5" fill="#5b6772">exterior</text>
  </g>

  <text x="450" y="292" text-anchor="middle" font-size="11" fill="#8a948d">Esquema orientativo de distribución (no a escala arquitectónica exacta) · dimensiones totales 87,8 × 23,5 m</text>
</svg>
